<mxfile host="Electron" modified="2024-04-16T08:27:37.057Z" agent="Mozilla/5.0 (Macintosh; Intel Mac OS X 10_15_7) AppleWebKit/537.36 (KHTML, like Gecko) draw.io/24.1.0 Chrome/120.0.6099.109 Electron/28.1.0 Safari/537.36" etag="Yo_oJ-2OcpbBGr2uUH9k" version="24.1.0" type="device">
  <diagram id="fWdjTTlqtvU5EoObXTZm" name="렌트카 예약">
    <mxGraphModel dx="876" dy="635" grid="1" gridSize="10" guides="1" tooltips="1" connect="1" arrows="1" fold="1" page="1" pageScale="1" pageWidth="827" pageHeight="1169" math="0" shadow="0">
      <root>
        <mxCell id="0" />
        <mxCell id="1" parent="0" />
        <mxCell id="qFXarjozZ7dyb56G4YLT-1" value="&lt;div&gt;&lt;span style=&quot;background-color: initial;&quot;&gt;고객&lt;/span&gt;&lt;br&gt;&lt;/div&gt;" style="shape=umlActor;verticalLabelPosition=bottom;verticalAlign=top;html=1;outlineConnect=0;" parent="1" vertex="1">
          <mxGeometry x="215" y="310" width="30" height="60" as="geometry" />
        </mxCell>
        <mxCell id="qFXarjozZ7dyb56G4YLT-2" value="렌트카 예약" style="swimlane;whiteSpace=wrap;html=1;" parent="1" vertex="1">
          <mxGeometry x="370" y="150" width="274" height="490" as="geometry" />
        </mxCell>
        <mxCell id="qFXarjozZ7dyb56G4YLT-3" value="유효한 고객&lt;div&gt;확인&lt;/div&gt;" style="ellipse;whiteSpace=wrap;html=1;" parent="qFXarjozZ7dyb56G4YLT-2" vertex="1">
          <mxGeometry x="160" y="80" width="80" height="40" as="geometry" />
        </mxCell>
        <mxCell id="qFXarjozZ7dyb56G4YLT-4" value="로그인" style="ellipse;whiteSpace=wrap;html=1;" parent="qFXarjozZ7dyb56G4YLT-2" vertex="1">
          <mxGeometry x="40" y="160" width="80" height="40" as="geometry" />
        </mxCell>
        <mxCell id="qFXarjozZ7dyb56G4YLT-5" value="사용자 인증" style="ellipse;whiteSpace=wrap;html=1;" parent="qFXarjozZ7dyb56G4YLT-2" vertex="1">
          <mxGeometry x="40" y="80" width="80" height="40" as="geometry" />
        </mxCell>
        <mxCell id="qFXarjozZ7dyb56G4YLT-6" value="렌트카 예약" style="ellipse;whiteSpace=wrap;html=1;" parent="qFXarjozZ7dyb56G4YLT-2" vertex="1">
          <mxGeometry x="40" y="240" width="80" height="40" as="geometry" />
        </mxCell>
        <mxCell id="qFXarjozZ7dyb56G4YLT-7" value="예약할 렌트카 선정" style="ellipse;whiteSpace=wrap;html=1;" parent="qFXarjozZ7dyb56G4YLT-2" vertex="1">
          <mxGeometry x="20" y="400" width="80" height="40" as="geometry" />
        </mxCell>
        <mxCell id="qFXarjozZ7dyb56G4YLT-8" value="" style="endArrow=classic;html=1;rounded=0;exitX=0.5;exitY=0;exitDx=0;exitDy=0;entryX=0;entryY=1;entryDx=0;entryDy=0;dashed=1;" parent="qFXarjozZ7dyb56G4YLT-2" source="qFXarjozZ7dyb56G4YLT-7" target="qFXarjozZ7dyb56G4YLT-6" edge="1">
          <mxGeometry width="50" height="50" relative="1" as="geometry">
            <mxPoint x="160" y="270" as="sourcePoint" />
            <mxPoint x="210" y="220" as="targetPoint" />
          </mxGeometry>
        </mxCell>
        <mxCell id="qFXarjozZ7dyb56G4YLT-9" value="&amp;lt;&amp;lt;extend&amp;gt;&amp;gt;" style="text;html=1;align=center;verticalAlign=middle;resizable=0;points=[];autosize=1;strokeColor=none;fillColor=none;" parent="qFXarjozZ7dyb56G4YLT-2" vertex="1">
          <mxGeometry x="50" y="370" width="90" height="30" as="geometry" />
        </mxCell>
        <mxCell id="qFXarjozZ7dyb56G4YLT-10" value="" style="endArrow=classic;html=1;rounded=0;exitX=0.5;exitY=1;exitDx=0;exitDy=0;entryX=0.5;entryY=0;entryDx=0;entryDy=0;dashed=1;" parent="qFXarjozZ7dyb56G4YLT-2" source="qFXarjozZ7dyb56G4YLT-4" target="qFXarjozZ7dyb56G4YLT-6" edge="1">
          <mxGeometry width="50" height="50" relative="1" as="geometry">
            <mxPoint x="182" y="296" as="sourcePoint" />
            <mxPoint x="127" y="281" as="targetPoint" />
          </mxGeometry>
        </mxCell>
        <mxCell id="qFXarjozZ7dyb56G4YLT-11" value="" style="endArrow=classic;html=1;rounded=0;exitX=0.5;exitY=0;exitDx=0;exitDy=0;entryX=0.5;entryY=1;entryDx=0;entryDy=0;dashed=1;" parent="qFXarjozZ7dyb56G4YLT-2" source="qFXarjozZ7dyb56G4YLT-4" target="qFXarjozZ7dyb56G4YLT-5" edge="1">
          <mxGeometry width="50" height="50" relative="1" as="geometry">
            <mxPoint x="192" y="306" as="sourcePoint" />
            <mxPoint x="137" y="291" as="targetPoint" />
          </mxGeometry>
        </mxCell>
        <mxCell id="qFXarjozZ7dyb56G4YLT-12" value="&amp;lt;&amp;lt;include&amp;gt;&amp;gt;" style="text;html=1;align=center;verticalAlign=middle;resizable=0;points=[];autosize=1;strokeColor=none;fillColor=none;" parent="qFXarjozZ7dyb56G4YLT-2" vertex="1">
          <mxGeometry x="80" y="130" width="90" height="30" as="geometry" />
        </mxCell>
        <mxCell id="qFXarjozZ7dyb56G4YLT-13" value="&amp;lt;&amp;lt;include&amp;gt;&amp;gt;" style="text;html=1;align=center;verticalAlign=middle;resizable=0;points=[];autosize=1;strokeColor=none;fillColor=none;" parent="qFXarjozZ7dyb56G4YLT-2" vertex="1">
          <mxGeometry x="-6" y="200" width="90" height="30" as="geometry" />
        </mxCell>
        <mxCell id="04bNbWMWlSkNieETEhMZ-4" value="렌트카 예약&lt;br&gt;가능 여부 확인" style="ellipse;whiteSpace=wrap;html=1;" vertex="1" parent="qFXarjozZ7dyb56G4YLT-2">
          <mxGeometry x="170" y="230" width="80" height="40" as="geometry" />
        </mxCell>
        <mxCell id="04bNbWMWlSkNieETEhMZ-6" value="" style="endArrow=classic;html=1;rounded=0;exitX=1;exitY=0.5;exitDx=0;exitDy=0;dashed=1;entryX=0;entryY=0.5;entryDx=0;entryDy=0;" edge="1" parent="qFXarjozZ7dyb56G4YLT-2" source="qFXarjozZ7dyb56G4YLT-5" target="qFXarjozZ7dyb56G4YLT-3">
          <mxGeometry width="50" height="50" relative="1" as="geometry">
            <mxPoint x="136.82" y="150" as="sourcePoint" />
            <mxPoint x="150" y="110" as="targetPoint" />
          </mxGeometry>
        </mxCell>
        <mxCell id="04bNbWMWlSkNieETEhMZ-7" value="&amp;lt;&amp;lt;include&amp;gt;&amp;gt;" style="text;html=1;align=center;verticalAlign=middle;resizable=0;points=[];autosize=1;strokeColor=none;fillColor=none;" vertex="1" parent="qFXarjozZ7dyb56G4YLT-2">
          <mxGeometry x="92" y="60" width="90" height="30" as="geometry" />
        </mxCell>
        <mxCell id="04bNbWMWlSkNieETEhMZ-8" value="" style="endArrow=classic;html=1;rounded=0;exitX=1;exitY=0.5;exitDx=0;exitDy=0;entryX=0;entryY=0.5;entryDx=0;entryDy=0;dashed=1;" edge="1" parent="qFXarjozZ7dyb56G4YLT-2" source="qFXarjozZ7dyb56G4YLT-6" target="04bNbWMWlSkNieETEhMZ-4">
          <mxGeometry width="50" height="50" relative="1" as="geometry">
            <mxPoint x="150" y="240" as="sourcePoint" />
            <mxPoint x="150" y="280" as="targetPoint" />
          </mxGeometry>
        </mxCell>
        <mxCell id="04bNbWMWlSkNieETEhMZ-9" value="&amp;lt;&amp;lt;include&amp;gt;&amp;gt;" style="text;html=1;align=center;verticalAlign=middle;resizable=0;points=[];autosize=1;strokeColor=none;fillColor=none;" vertex="1" parent="qFXarjozZ7dyb56G4YLT-2">
          <mxGeometry x="92" y="220" width="90" height="30" as="geometry" />
        </mxCell>
        <mxCell id="04bNbWMWlSkNieETEhMZ-15" value="렌트카 예약&lt;br&gt;반영" style="ellipse;whiteSpace=wrap;html=1;" vertex="1" parent="qFXarjozZ7dyb56G4YLT-2">
          <mxGeometry x="170" y="290" width="80" height="40" as="geometry" />
        </mxCell>
        <mxCell id="04bNbWMWlSkNieETEhMZ-16" value="" style="endArrow=classic;html=1;rounded=0;exitX=1;exitY=0.5;exitDx=0;exitDy=0;entryX=0;entryY=0;entryDx=0;entryDy=0;dashed=1;" edge="1" parent="qFXarjozZ7dyb56G4YLT-2" source="qFXarjozZ7dyb56G4YLT-6" target="04bNbWMWlSkNieETEhMZ-15">
          <mxGeometry width="50" height="50" relative="1" as="geometry">
            <mxPoint x="130" y="270" as="sourcePoint" />
            <mxPoint x="180" y="260" as="targetPoint" />
          </mxGeometry>
        </mxCell>
        <mxCell id="04bNbWMWlSkNieETEhMZ-18" value="&amp;lt;&amp;lt;include&amp;gt;&amp;gt;" style="text;html=1;align=center;verticalAlign=middle;resizable=0;points=[];autosize=1;strokeColor=none;fillColor=none;" vertex="1" parent="qFXarjozZ7dyb56G4YLT-2">
          <mxGeometry x="92" y="280" width="90" height="30" as="geometry" />
        </mxCell>
        <mxCell id="04bNbWMWlSkNieETEhMZ-20" value="예약금 결제" style="ellipse;whiteSpace=wrap;html=1;" vertex="1" parent="qFXarjozZ7dyb56G4YLT-2">
          <mxGeometry x="170" y="395" width="80" height="40" as="geometry" />
        </mxCell>
        <mxCell id="04bNbWMWlSkNieETEhMZ-21" value="" style="endArrow=classic;html=1;rounded=0;exitX=0.5;exitY=1;exitDx=0;exitDy=0;entryX=0.5;entryY=0;entryDx=0;entryDy=0;dashed=1;" edge="1" parent="qFXarjozZ7dyb56G4YLT-2" source="qFXarjozZ7dyb56G4YLT-6" target="04bNbWMWlSkNieETEhMZ-20">
          <mxGeometry width="50" height="50" relative="1" as="geometry">
            <mxPoint x="160" y="420" as="sourcePoint" />
            <mxPoint x="90" y="290" as="targetPoint" />
          </mxGeometry>
        </mxCell>
        <mxCell id="04bNbWMWlSkNieETEhMZ-22" value="&amp;lt;&amp;lt;include&amp;gt;&amp;gt;" style="text;html=1;align=center;verticalAlign=middle;resizable=0;points=[];autosize=1;strokeColor=none;fillColor=none;" vertex="1" parent="qFXarjozZ7dyb56G4YLT-2">
          <mxGeometry x="70" y="330" width="90" height="30" as="geometry" />
        </mxCell>
        <mxCell id="qFXarjozZ7dyb56G4YLT-15" value="인증&lt;span style=&quot;background-color: initial;&quot;&gt;시스템&lt;/span&gt;" style="shape=umlActor;verticalLabelPosition=bottom;verticalAlign=top;html=1;outlineConnect=0;" parent="1" vertex="1">
          <mxGeometry x="740" y="240" width="30" height="60" as="geometry" />
        </mxCell>
        <mxCell id="qFXarjozZ7dyb56G4YLT-16" value="" style="endArrow=none;html=1;rounded=0;entryX=0.5;entryY=0.5;entryDx=0;entryDy=0;entryPerimeter=0;exitX=1;exitY=0.5;exitDx=0;exitDy=0;" parent="1" source="qFXarjozZ7dyb56G4YLT-3" target="qFXarjozZ7dyb56G4YLT-15" edge="1">
          <mxGeometry width="50" height="50" relative="1" as="geometry">
            <mxPoint x="520" y="510" as="sourcePoint" />
            <mxPoint x="570" y="460" as="targetPoint" />
          </mxGeometry>
        </mxCell>
        <mxCell id="qFXarjozZ7dyb56G4YLT-22" value="actor" style="rounded=0;whiteSpace=wrap;html=1;fillColor=#fa6800;fontColor=#000000;strokeColor=#C73500;" parent="1" vertex="1">
          <mxGeometry x="190" y="280" width="80" height="20" as="geometry" />
        </mxCell>
        <mxCell id="04bNbWMWlSkNieETEhMZ-3" value="예약 현황시스템" style="shape=umlActor;verticalLabelPosition=bottom;verticalAlign=top;html=1;outlineConnect=0;" vertex="1" parent="1">
          <mxGeometry x="740" y="400" width="30" height="60" as="geometry" />
        </mxCell>
        <mxCell id="04bNbWMWlSkNieETEhMZ-5" value="" style="endArrow=none;html=1;rounded=0;exitX=1;exitY=0.5;exitDx=0;exitDy=0;" edge="1" parent="1" source="04bNbWMWlSkNieETEhMZ-4" target="04bNbWMWlSkNieETEhMZ-3">
          <mxGeometry width="50" height="50" relative="1" as="geometry">
            <mxPoint x="670" y="380" as="sourcePoint" />
            <mxPoint x="815" y="390" as="targetPoint" />
          </mxGeometry>
        </mxCell>
        <mxCell id="04bNbWMWlSkNieETEhMZ-10" value="" style="endArrow=none;html=1;rounded=0;entryX=0;entryY=0.5;entryDx=0;entryDy=0;" edge="1" parent="1" source="qFXarjozZ7dyb56G4YLT-1" target="qFXarjozZ7dyb56G4YLT-4">
          <mxGeometry width="50" height="50" relative="1" as="geometry">
            <mxPoint x="320" y="470" as="sourcePoint" />
            <mxPoint x="370" y="420" as="targetPoint" />
          </mxGeometry>
        </mxCell>
        <mxCell id="04bNbWMWlSkNieETEhMZ-11" value="" style="endArrow=none;html=1;rounded=0;entryX=0;entryY=0.5;entryDx=0;entryDy=0;" edge="1" parent="1" source="qFXarjozZ7dyb56G4YLT-1" target="qFXarjozZ7dyb56G4YLT-6">
          <mxGeometry width="50" height="50" relative="1" as="geometry">
            <mxPoint x="250" y="360" as="sourcePoint" />
            <mxPoint x="420" y="350" as="targetPoint" />
          </mxGeometry>
        </mxCell>
        <mxCell id="04bNbWMWlSkNieETEhMZ-12" value="association" style="rounded=0;whiteSpace=wrap;html=1;fillColor=#fa6800;fontColor=#000000;strokeColor=#C73500;" vertex="1" parent="1">
          <mxGeometry x="280" y="240" width="80" height="20" as="geometry" />
        </mxCell>
        <mxCell id="04bNbWMWlSkNieETEhMZ-13" value="" style="endArrow=none;dashed=1;html=1;rounded=0;entryX=0.5;entryY=1;entryDx=0;entryDy=0;" edge="1" parent="1" target="04bNbWMWlSkNieETEhMZ-12">
          <mxGeometry width="50" height="50" relative="1" as="geometry">
            <mxPoint x="300" y="330" as="sourcePoint" />
            <mxPoint x="380" y="290" as="targetPoint" />
          </mxGeometry>
        </mxCell>
        <mxCell id="04bNbWMWlSkNieETEhMZ-14" value="" style="endArrow=none;dashed=1;html=1;rounded=0;entryX=0.5;entryY=1;entryDx=0;entryDy=0;" edge="1" parent="1" target="04bNbWMWlSkNieETEhMZ-12">
          <mxGeometry width="50" height="50" relative="1" as="geometry">
            <mxPoint x="340" y="380" as="sourcePoint" />
            <mxPoint x="310" y="270" as="targetPoint" />
          </mxGeometry>
        </mxCell>
        <mxCell id="04bNbWMWlSkNieETEhMZ-17" value="" style="endArrow=none;html=1;rounded=0;exitX=1;exitY=0.5;exitDx=0;exitDy=0;" edge="1" parent="1" source="04bNbWMWlSkNieETEhMZ-15" target="04bNbWMWlSkNieETEhMZ-3">
          <mxGeometry width="50" height="50" relative="1" as="geometry">
            <mxPoint x="630" y="420" as="sourcePoint" />
            <mxPoint x="720" y="440" as="targetPoint" />
          </mxGeometry>
        </mxCell>
        <mxCell id="04bNbWMWlSkNieETEhMZ-23" value="결제 시스템" style="shape=umlActor;verticalLabelPosition=bottom;verticalAlign=top;html=1;outlineConnect=0;" vertex="1" parent="1">
          <mxGeometry x="740" y="520" width="30" height="60" as="geometry" />
        </mxCell>
        <mxCell id="04bNbWMWlSkNieETEhMZ-25" value="" style="endArrow=none;html=1;rounded=0;exitX=1;exitY=0.5;exitDx=0;exitDy=0;" edge="1" parent="1" source="04bNbWMWlSkNieETEhMZ-20" target="04bNbWMWlSkNieETEhMZ-23">
          <mxGeometry width="50" height="50" relative="1" as="geometry">
            <mxPoint x="620" y="510" as="sourcePoint" />
            <mxPoint x="670" y="460" as="targetPoint" />
          </mxGeometry>
        </mxCell>
      </root>
    </mxGraphModel>
  </diagram>
</mxfile>
